<svg width="102" height="36" viewBox="0 0 102 36" fill="none" xmlns="http://www.w3.org/2000/svg">
    <path d="M28.4201 20.928C27.8091 23.776 25.6647 25.848 21.8512 25.848C17.0193 25.848 14.7352 22.424 14.7352 18.1C14.7352 13.916 17.0912 10.168 22.0069 10.168C26.0641 10.168 28.0327 12.568 28.3961 15.104H25.1097C24.7902 13.928 23.9756 12.756 21.9151 12.756C19.1996 12.756 18.1494 15.204 18.1494 17.98C18.1494 20.56 19.0599 23.28 22.0029 23.28C24.1553 23.28 24.8301 21.836 25.1177 20.944L28.4201 20.928Z" fill="black"/>
    <path d="M40.0245 22.576C40.0187 23.5649 40.0707 24.5532 40.1802 25.536H37.1374C37.0384 25.1706 36.9848 24.7945 36.9776 24.416C36.5783 25.06 35.7797 25.804 33.783 25.804C31.0237 25.804 29.8616 23.988 29.8616 22.204C29.8616 19.596 31.9541 18.392 35.3045 18.392H36.9377V17.7C36.9377 16.9 36.6462 16.1 35.1767 16.1C33.8389 16.1 33.5474 16.668 33.4037 17.496H30.3848C30.5565 15.46 31.8143 13.812 35.2925 13.832C38.3553 13.832 40.0245 15.032 40.0245 17.78V22.576ZM36.9377 20.32H35.6479C33.7391 20.32 33.0323 20.904 33.0323 22.008C33.0323 22.84 33.5394 23.536 34.6775 23.536C36.6741 23.536 36.9377 22.136 36.9377 20.624V20.32Z" fill="black"/>
    <path d="M42.8917 25.536V9.38H46.0583V25.536H42.8917Z" fill="black"/>
    <path d="M59.5476 19.788C59.5476 23.252 57.4751 25.788 53.8532 25.788C50.3072 25.788 48.2347 23.252 48.2347 19.832C48.2347 16.296 50.3711 13.796 54.001 13.796C57.3713 13.812 59.5476 16.192 59.5476 19.788ZM51.4493 19.808C51.4493 22.012 52.3957 23.32 53.9211 23.32C55.4465 23.32 56.3171 22.012 56.3171 19.828C56.3171 17.428 55.4385 16.296 53.8612 16.296C52.4076 16.296 51.4493 17.384 51.4493 19.808V19.808Z" fill="black"/>
    <path d="M64.8706 24.524V29.928H61.7239V16.84C61.7239 15.912 61.7239 15 61.7239 14.08H64.7907C64.8501 14.5538 64.8834 15.0305 64.8906 15.508C65.3817 14.664 66.404 13.812 68.217 13.812C70.7846 13.812 72.7733 15.968 72.7733 19.52C72.7733 23.564 70.553 25.804 67.7817 25.804C66.1484 25.804 65.3099 25.192 64.8706 24.524ZM69.5387 19.644C69.5387 17.544 68.6922 16.356 67.1827 16.356C65.3857 16.356 64.7468 17.512 64.7468 19.824C64.7468 22.008 65.3378 23.28 67.0469 23.28C68.756 23.28 69.5387 21.976 69.5387 19.644Z" fill="black"/>
    <path d="M77.3655 22.1C77.6051 23.012 78.3479 23.528 79.5299 23.528C80.7119 23.528 81.1272 23.104 81.1272 22.412C81.1272 21.72 80.632 21.388 78.9948 20.984C75.2691 20.056 74.6741 18.9 74.6741 17.3C74.6741 15.616 75.8721 13.828 79.3142 13.828C82.7564 13.828 83.9584 15.728 84.0583 17.28H81.0433C80.9435 16.856 80.644 16.056 79.1705 16.056C78.1243 16.056 77.7848 16.52 77.7848 17.036C77.7848 17.552 78.1402 17.88 79.9971 18.316C83.8147 19.204 84.3538 20.516 84.3538 22.196C84.3538 24.092 82.9162 25.82 79.4261 25.82C75.9359 25.82 74.5024 24.124 74.2747 22.1H77.3655Z" fill="black"/>
    <path d="M86.4342 9.38H89.6009V12.208H86.4342V9.38ZM86.4342 14.08H89.6009V25.536H86.4342V14.08Z" fill="black"/>
    <path d="M101.828 22.576C101.822 23.5649 101.874 24.5532 101.984 25.536H98.9571C98.86 25.1703 98.8064 24.7943 98.7974 24.416C98.3981 25.06 97.5994 25.804 95.6028 25.804C92.8434 25.804 91.6814 23.988 91.6814 22.204C91.6814 19.596 93.7739 18.392 97.1282 18.392H98.7615V17.7C98.7615 16.9 98.466 16.1 97.0004 16.1C95.6627 16.1 95.3672 16.668 95.2234 17.496H92.2125C92.3842 15.46 93.6421 13.812 97.1162 13.832C100.183 13.832 101.848 15.032 101.848 17.78L101.828 22.576ZM98.7415 20.32H97.4517C95.5429 20.32 94.8361 20.904 94.8361 22.008C94.8361 22.84 95.3432 23.536 96.4813 23.536C98.4779 23.536 98.7415 22.136 98.7415 20.624V20.32Z" fill="black"/>
    <path d="M23.7316 34.016C19.4911 34.016 15.4242 32.3286 12.4257 29.325C9.42716 26.3214 7.7426 22.2477 7.7426 18C7.7426 13.7523 9.42716 9.67856 12.4257 6.67498C15.4242 3.67139 19.4911 1.984 23.7316 1.984C24.0112 1.984 24.2867 1.992 24.5582 2.008C22.1802 0.949413 19.596 0.436352 16.9946 0.506303C14.3933 0.576253 11.8403 1.22745 9.52237 2.41231C7.20441 3.59717 5.17998 5.28577 3.59698 7.35473C2.01398 9.4237 0.912406 11.8208 0.37273 14.3708C-0.166947 16.9209 -0.131089 19.5595 0.477683 22.0938C1.08646 24.6282 2.25276 26.9944 3.8914 29.0194C5.53003 31.0444 7.5996 32.6772 9.94889 33.7984C12.2982 34.9197 14.8679 35.501 17.4702 35.5C19.9125 35.5028 22.3279 34.9889 24.5582 33.992C24.2867 34.008 24.0112 34.016 23.7316 34.016Z" fill="#0119AA"/>
</svg>