<svg xmlns="http://www.w3.org/2000/svg" viewBox="0 0 71.2 87.51"><defs><style>.cls-1{fill:#fff;}</style></defs><g id="Слой_2" data-name="Слой 2"><g id="Слой_1-2" data-name="Слой 1"><path class="cls-1" d="M71.2,51.08c-1.53,7.12-6.9,12.3-16.45,12.3-12.1,0-17.82-8.56-17.82-19.37,0-10.46,5.9-19.83,18.21-19.83,10.16,0,15.09,6,16,12.34H62.91c-.8-2.94-2.84-5.87-8-5.87-6.8,0-9.43,6.12-9.43,13.06,0,6.45,2.28,13.25,9.65,13.25,5.39,0,7.08-3.61,7.8-5.84Z"/><path class="cls-1" d="M59.46,83.8a40,40,0,0,1,0-80.08q1,0,2.07.06a43.75,43.75,0,1,0,0,80Q60.51,83.8,59.46,83.8Z"/></g></g></svg>