<svg xmlns="http://www.w3.org/2000/svg" viewBox="0 0 255.43 87.5"><defs><style>.cls-1{fill:#fff;}.cls-2{fill:#fff;}</style></defs><g id="Слой_2" data-name="Слой 2"><g id="Слой_1-2" data-name="Слой 1"><path class="cls-1" d="M71.17,51.07c-1.53,7.12-6.9,12.3-16.45,12.3C42.62,63.37,36.9,54.81,36.9,44c0-10.46,5.9-19.83,18.21-19.83,10.16,0,15.09,6,16,12.34H62.88c-.8-2.94-2.84-5.87-8-5.87-6.8,0-9.43,6.12-9.43,13.06,0,6.45,2.28,13.25,9.65,13.25,5.39,0,7.08-3.61,7.8-5.84Z"/><path class="cls-1" d="M100.23,55.19a63.32,63.32,0,0,0,.39,7.4H93a11.53,11.53,0,0,1-.4-2.8c-1,1.61-3,3.47-8,3.47-6.91,0-9.82-4.54-9.82-9,0-6.52,5.24-9.53,13.63-9.53h4.09V43c0-2-.73-4-4.41-4-3.35,0-4.08,1.42-4.44,3.49H76.09c.43-5.09,3.58-9.21,12.29-9.16,7.67,0,11.85,3,11.85,9.87ZM92.5,49.55H89.27c-4.78,0-6.55,1.46-6.55,4.22,0,2.08,1.27,3.82,4.12,3.82,5,0,5.66-3.5,5.66-7.28Z"/><path class="cls-1" d="M107.41,62.59V22.2h7.93V62.59Z"/><path class="cls-1" d="M149.12,48.22c0,8.66-5.19,15-14.26,15-8.88,0-14.07-6.34-14.07-14.89,0-8.84,5.35-15.09,14.44-15.09C143.67,33.28,149.12,39.23,149.12,48.22Zm-20.28.05c0,5.51,2.37,8.78,6.19,8.78s6-3.27,6-8.73c0-6-2.2-8.83-6.15-8.83C131.24,39.49,128.84,42.21,128.84,48.27Z"/><path class="cls-1" d="M162.45,60.06V73.57h-7.88V40.85c0-2.32,0-4.6,0-6.9h7.68a32.57,32.57,0,0,1,.25,3.57c1.23-2.11,3.79-4.24,8.33-4.24,6.43,0,11.41,5.39,11.41,14.27,0,10.11-5.56,15.71-12.5,15.71C165.65,63.26,163.55,61.73,162.45,60.06Zm11.69-12.2c0-5.25-2.12-8.22-5.9-8.22-4.5,0-6.1,2.89-6.1,8.67,0,5.46,1.48,8.64,5.76,8.64S174.14,53.69,174.14,47.86Z"/><path class="cls-1" d="M193.74,54c.6,2.28,2.46,3.57,5.42,3.57s4-1.06,4-2.79-1.24-2.56-5.34-3.57C188.49,48.89,187,46,187,42c0-4.21,3-8.68,11.62-8.68s11.63,4.75,11.88,8.63h-7.55c-.25-1.06-1-3.06-4.69-3.06-2.62,0-3.47,1.16-3.47,2.45s.89,2.11,5.54,3.2c9.56,2.22,10.91,5.5,10.91,9.7,0,4.74-3.6,9.06-12.34,9.06S186.57,59.06,186,54Z"/><path class="cls-1" d="M216.45,22.2h7.93v7.07h-7.93Zm0,11.75h7.93V62.59h-7.93Z"/><path class="cls-1" d="M255,55.19a63.32,63.32,0,0,0,.39,7.4h-7.58a12,12,0,0,1-.4-2.8c-1,1.61-3,3.47-8,3.47-6.91,0-9.82-4.54-9.82-9,0-6.52,5.24-9.53,13.64-9.53h4.09V43c0-2-.74-4-4.41-4-3.35,0-4.09,1.42-4.45,3.49h-7.54c.43-5.09,3.58-9.21,12.28-9.16,7.68,0,11.85,3,11.85,9.87Zm-7.73-5.64h-3.23c-4.78,0-6.55,1.46-6.55,4.22,0,2.08,1.27,3.82,4.12,3.82,5,0,5.66-3.5,5.66-7.28Z"/><path class="cls-2" d="M59.43,83.79a40,40,0,0,1,0-80.08q1.05,0,2.07.06A43.75,43.75,0,1,0,43.75,87.5,43.44,43.44,0,0,0,61.5,83.73Q60.48,83.79,59.43,83.79Z"/></g></g></svg>